<svg xmlns="http://www.w3.org/2000/svg" xmlns:svg="http://www.w3.org/2000/svg" id="svg8" width="345.665" height="212.005" version="1.1" viewBox="0 0 91.457 56.093"><metadata id="metadata5"/><g id="layer1" transform="translate(-41.961315,-19.841499)"><rect id="rect815" width="43.832" height="26.46" x="41.961" y="19.841" style="opacity:1;fill:#2e3436;fill-opacity:1;stroke:none;stroke-width:.50006247;stroke-linecap:round;stroke-linejoin:miter;stroke-miterlimit:4;stroke-dasharray:none;stroke-dashoffset:0;stroke-opacity:1"/><rect style="opacity:1;fill:#2e3436;fill-opacity:1;stroke:none;stroke-width:.50006247;stroke-linecap:round;stroke-linejoin:miter;stroke-miterlimit:4;stroke-dasharray:none;stroke-dashoffset:0;stroke-opacity:1" id="rect817" width="43.832" height="26.46" x="89.586" y="19.841"/><g id="g843" transform="translate(-0.03474289,-0.25908189)"><circle style="fill:#fff;stroke-width:.26458332" id="circle819" cx="63.912" cy="33.823" r="1.577"/><path style="fill:#fff;stroke-width:.26458332" id="path821" d="m 62.434028,28.896028 -0.901661,0.985419 h -1.561892 c -0.54198,0 -0.985419,0.44344 -0.985419,0.985422 v 5.912525 c 0,0.541982 0.443439,0.985421 0.985419,0.985421 h 7.883368 c 0.54198,0 0.98542,-0.443439 0.98542,-0.985421 v -5.912525 c 0,-0.541982 -0.44344,-0.985422 -0.98542,-0.985422 H 66.29195 l -0.901659,-0.985419 z m 1.478131,7.390656 c -1.35988,0 -2.463552,-1.103672 -2.463552,-2.463553 0,-1.35988 1.103672,-2.463552 2.463552,-2.463552 1.359881,0 2.463553,1.103672 2.463553,2.463552 0,1.359881 -1.103672,2.463553 -2.463553,2.463553 z"/></g><rect id="rect845" width="40.939" height="23.907" x="91.033" y="21.118" style="opacity:1;fill:#fff;fill-opacity:1;stroke:none;stroke-width:.50006247;stroke-linecap:round;stroke-linejoin:miter;stroke-miterlimit:4;stroke-dasharray:none;stroke-dashoffset:0;stroke-opacity:1"/><rect id="rect847" width="25.574" height="2.203" x="93.302" y="23.459" style="opacity:1;fill:#2e3436;fill-opacity:1;stroke:none;stroke-width:.50006247;stroke-linecap:round;stroke-linejoin:miter;stroke-miterlimit:4;stroke-dasharray:none;stroke-dashoffset:0;stroke-opacity:1"/><rect style="opacity:1;fill:#2e3436;fill-opacity:1;stroke:none;stroke-width:.50006247;stroke-linecap:round;stroke-linejoin:miter;stroke-miterlimit:4;stroke-dasharray:none;stroke-dashoffset:0;stroke-opacity:1" id="rect849" width="29.036" height="2.203" x="93.302" y="27.693"/><rect id="rect851" width="23.37" height="2.203" x="93.302" y="31.926" style="opacity:1;fill:#2e3436;fill-opacity:1;stroke:none;stroke-width:.50006247;stroke-linecap:round;stroke-linejoin:miter;stroke-miterlimit:4;stroke-dasharray:none;stroke-dashoffset:0;stroke-opacity:1"/><rect style="opacity:1;fill:#2e3436;fill-opacity:1;stroke:none;stroke-width:.50006247;stroke-linecap:round;stroke-linejoin:miter;stroke-miterlimit:4;stroke-dasharray:none;stroke-dashoffset:0;stroke-opacity:1" id="rect853" width="26.833" height="2.203" x="93.302" y="36.159"/><rect id="rect855" width="43.832" height="26.46" x="41.961" y="49.475" style="opacity:1;fill:#2e3436;fill-opacity:1;stroke:none;stroke-width:.50006247;stroke-linecap:round;stroke-linejoin:miter;stroke-miterlimit:4;stroke-dasharray:none;stroke-dashoffset:0;stroke-opacity:1"/><rect style="opacity:1;fill:#fff;fill-opacity:1;stroke:none;stroke-width:.50006247;stroke-linecap:round;stroke-linejoin:miter;stroke-miterlimit:4;stroke-dasharray:none;stroke-dashoffset:0;stroke-opacity:1" id="rect857" width="40.939" height="23.907" x="43.408" y="50.751"/><rect style="opacity:1;fill:#2e3436;fill-opacity:1;stroke:none;stroke-width:.50006247;stroke-linecap:round;stroke-linejoin:miter;stroke-miterlimit:4;stroke-dasharray:none;stroke-dashoffset:0;stroke-opacity:1" id="rect859" width="25.574" height="2.203" x="45.677" y="53.093"/><rect id="rect861" width="29.036" height="2.203" x="45.677" y="57.326" style="opacity:1;fill:#2e3436;fill-opacity:1;stroke:none;stroke-width:.50006247;stroke-linecap:round;stroke-linejoin:miter;stroke-miterlimit:4;stroke-dasharray:none;stroke-dashoffset:0;stroke-opacity:1"/><rect style="opacity:1;fill:#2e3436;fill-opacity:1;stroke:none;stroke-width:.50006247;stroke-linecap:round;stroke-linejoin:miter;stroke-miterlimit:4;stroke-dasharray:none;stroke-dashoffset:0;stroke-opacity:1" id="rect863" width="23.37" height="2.203" x="45.677" y="61.559"/><rect id="rect865" width="26.833" height="2.203" x="45.677" y="65.793" style="opacity:1;fill:#2e3436;fill-opacity:1;stroke:none;stroke-width:.50006247;stroke-linecap:round;stroke-linejoin:miter;stroke-miterlimit:4;stroke-dasharray:none;stroke-dashoffset:0;stroke-opacity:1"/><rect style="opacity:1;fill:#2e3436;fill-opacity:1;stroke:none;stroke-width:.50006247;stroke-linecap:round;stroke-linejoin:miter;stroke-miterlimit:4;stroke-dasharray:none;stroke-dashoffset:0;stroke-opacity:1" id="rect867" width="43.832" height="26.46" x="89.586" y="49.475"/><g id="g873" transform="translate(47.590259,29.374251)"><circle id="circle869" cx="63.912" cy="33.823" r="1.577" style="fill:#fff;stroke-width:.26458332"/><path id="path871" d="m 62.434028,28.896028 -0.901661,0.985419 h -1.561892 c -0.54198,0 -0.985419,0.44344 -0.985419,0.985422 v 5.912525 c 0,0.541982 0.443439,0.985421 0.985419,0.985421 h 7.883368 c 0.54198,0 0.98542,-0.443439 0.98542,-0.985421 v -5.912525 c 0,-0.541982 -0.44344,-0.985422 -0.98542,-0.985422 H 66.29195 l -0.901659,-0.985419 z m 1.478131,7.390656 c -1.35988,0 -2.463552,-1.103672 -2.463552,-2.463553 0,-1.35988 1.103672,-2.463552 2.463552,-2.463552 1.359881,0 2.463553,1.103672 2.463553,2.463552 0,1.359881 -1.103672,2.463553 -2.463553,2.463553 z" style="fill:#fff;stroke-width:.26458332"/></g><g id="text877" style="font-style:normal;font-variant:normal;font-weight:700;font-stretch:normal;font-size:3.96875px;line-height:125%;font-family:'DejaVu Sans';-inkscape-font-specification:'DejaVu Sans, Bold';font-variant-ligatures:normal;font-variant-caps:normal;font-variant-numeric:normal;font-feature-settings:normal;text-align:center;letter-spacing:0;word-spacing:0;writing-mode:lr-tb;text-anchor:middle;fill:#fff;fill-opacity:1;stroke:none;stroke-width:.26458332px;stroke-linecap:butt;stroke-linejoin:miter;stroke-opacity:1" aria-label="1"><path id="path846" style="font-style:normal;font-variant:normal;font-weight:700;font-stretch:normal;font-size:3.96875px;font-family:'DejaVu Sans';-inkscape-font-specification:'DejaVu Sans, Bold';font-variant-ligatures:normal;font-variant-caps:normal;font-variant-numeric:normal;font-feature-settings:normal;text-align:center;writing-mode:lr-tb;text-anchor:middle;fill:#fff;stroke-width:.26458332px" d="m 80.320816,43.096581 h 0.658875 V 41.22654 l -0.676316,0.139526 v -0.507721 l 0.67244,-0.139526 h 0.709259 v 2.377762 h 0.658874 v 0.515472 h -2.023132 z"/></g><g id="text881" style="font-style:normal;font-variant:normal;font-weight:700;font-stretch:normal;font-size:3.96875px;line-height:125%;font-family:'DejaVu Sans';-inkscape-font-specification:'DejaVu Sans, Bold';font-variant-ligatures:normal;font-variant-caps:normal;font-variant-numeric:normal;font-feature-settings:normal;text-align:center;letter-spacing:0;word-spacing:0;writing-mode:lr-tb;text-anchor:middle;fill:#fff;fill-opacity:1;stroke:none;stroke-width:.26458332px;stroke-linecap:butt;stroke-linejoin:miter;stroke-opacity:1" aria-label="4"><path id="path852" style="font-style:normal;font-variant:normal;font-weight:700;font-stretch:normal;font-size:3.96875px;font-family:'DejaVu Sans';-inkscape-font-specification:'DejaVu Sans, Bold';font-variant-ligatures:normal;font-variant-caps:normal;font-variant-numeric:normal;font-feature-settings:normal;text-align:center;writing-mode:lr-tb;text-anchor:middle;fill:#fff;stroke-width:.26458332px" d="m 128.94188,70.966454 -0.81778,1.211166 h 0.81778 z m -0.12402,-0.614304 h 0.8294 v 1.82547 h 0.41277 v 0.540665 h -0.41277 v 0.527099 h -0.70538 v -0.527099 h -1.28287 v -0.639496 z"/></g><g id="text889" style="font-style:normal;font-variant:normal;font-weight:700;font-stretch:normal;font-size:3.96875px;line-height:125%;font-family:'DejaVu Sans';-inkscape-font-specification:'DejaVu Sans, Bold';font-variant-ligatures:normal;font-variant-caps:normal;font-variant-numeric:normal;font-feature-settings:normal;text-align:center;letter-spacing:0;word-spacing:0;writing-mode:lr-tb;text-anchor:middle;fill:#2e3436;fill-opacity:1;stroke:none;stroke-width:.26458332px;stroke-linecap:butt;stroke-linejoin:miter;stroke-opacity:1" aria-label="2"><path id="path849" style="font-style:normal;font-variant:normal;font-weight:700;font-stretch:normal;font-size:3.96875px;font-family:'DejaVu Sans';-inkscape-font-specification:'DejaVu Sans, Bold';font-variant-ligatures:normal;font-variant-caps:normal;font-variant-numeric:normal;font-feature-settings:normal;text-align:center;writing-mode:lr-tb;text-anchor:middle;fill:#2e3436;stroke-width:.26458332px" d="m 128.62407,43.063637 h 1.27318 v 0.548416 h -2.10259 v -0.548416 l 1.05614,-0.932114 q 0.14146,-0.127899 0.20929,-0.249985 0.0678,-0.122085 0.0678,-0.25386 0,-0.203476 -0.13758,-0.327499 -0.13565,-0.124024 -0.36239,-0.124024 -0.1744,0 -0.38175,0.07558 -0.20736,0.07364 -0.44378,0.220917 v -0.63562 q 0.25193,-0.08333 0.49804,-0.125962 0.2461,-0.04457 0.48252,-0.04457 0.51935,0 0.80616,0.228668 0.28874,0.228669 0.28874,0.637558 0,0.23642 -0.12209,0.441834 -0.12208,0.203476 -0.51353,0.546478 z"/></g><g id="text893" style="font-style:normal;font-variant:normal;font-weight:700;font-stretch:normal;font-size:3.96875px;line-height:125%;font-family:'DejaVu Sans';-inkscape-font-specification:'DejaVu Sans, Bold';font-variant-ligatures:normal;font-variant-caps:normal;font-variant-numeric:normal;font-feature-settings:normal;text-align:center;letter-spacing:0;word-spacing:0;writing-mode:lr-tb;text-anchor:middle;fill:#2e3436;fill-opacity:1;stroke:none;stroke-width:.26458332px;stroke-linecap:butt;stroke-linejoin:miter;stroke-opacity:1" aria-label="3"><path id="path843" style="font-style:normal;font-variant:normal;font-weight:700;font-stretch:normal;font-size:3.96875px;font-family:'DejaVu Sans';-inkscape-font-specification:'DejaVu Sans, Bold';font-variant-ligatures:normal;font-variant-caps:normal;font-variant-numeric:normal;font-feature-settings:normal;text-align:center;writing-mode:lr-tb;text-anchor:middle;fill:#2e3436;stroke-width:.26458332px" d="m 81.70446,71.68541 q 0.292618,0.07558 0.443772,0.263549 0.153091,0.186036 0.153091,0.474778 0,0.430206 -0.329437,0.654998 -0.329438,0.222855 -0.961182,0.222855 -0.222855,0 -0.447647,-0.03682 -0.222855,-0.03488 -0.441834,-0.106583 v -0.575546 q 0.20929,0.104644 0.414704,0.158905 0.207352,0.05232 0.406952,0.05232 0.296493,0 0.45346,-0.102707 0.158905,-0.102707 0.158905,-0.294556 0,-0.197662 -0.16278,-0.298431 -0.160843,-0.102707 -0.476715,-0.102707 h -0.298432 v -0.480591 h 0.313935 q 0.28099,0 0.418579,-0.0872 0.137588,-0.08914 0.137588,-0.269363 0,-0.166657 -0.133713,-0.257736 -0.133712,-0.09108 -0.377884,-0.09108 -0.180221,0 -0.364318,0.04069 -0.184098,0.04069 -0.366257,0.120148 v -0.546478 q 0.220917,-0.06201 0.437958,-0.09302 0.217041,-0.03101 0.42633,-0.03101 0.563919,0 0.842972,0.186035 0.280991,0.184098 0.280991,0.556168 0,0.25386 -0.133713,0.416641 -0.133713,0.160843 -0.395325,0.226731 z"/></g></g></svg>