<svg xmlns="http://www.w3.org/2000/svg" xmlns:xlink="http://www.w3.org/1999/xlink" width="100%" height="100%" preserveAspectRatio="xMidYMid" viewBox="0 0 100 100"><g transform="rotate(0 50 50)"><rect width="6" height="12" x="47" y="24" fill="#000" rx="9.4" ry="4.8"><animate attributeName="opacity" begin="-3.85s" dur="4.2s" keyTimes="0;1" repeatCount="indefinite" values="1;0"/></rect></g><g transform="rotate(30 50 50)"><rect width="6" height="12" x="47" y="24" fill="#000" rx="9.4" ry="4.8"><animate attributeName="opacity" begin="-3.5s" dur="4.2s" keyTimes="0;1" repeatCount="indefinite" values="1;0"/></rect></g><g transform="rotate(60 50 50)"><rect width="6" height="12" x="47" y="24" fill="#000" rx="9.4" ry="4.8"><animate attributeName="opacity" begin="-3.1500000000000004s" dur="4.2s" keyTimes="0;1" repeatCount="indefinite" values="1;0"/></rect></g><g transform="rotate(90 50 50)"><rect width="6" height="12" x="47" y="24" fill="#000" rx="9.4" ry="4.8"><animate attributeName="opacity" begin="-2.8000000000000003s" dur="4.2s" keyTimes="0;1" repeatCount="indefinite" values="1;0"/></rect></g><g transform="rotate(120 50 50)"><rect width="6" height="12" x="47" y="24" fill="#000" rx="9.4" ry="4.8"><animate attributeName="opacity" begin="-2.45s" dur="4.2s" keyTimes="0;1" repeatCount="indefinite" values="1;0"/></rect></g><g transform="rotate(150 50 50)"><rect width="6" height="12" x="47" y="24" fill="#000" rx="9.4" ry="4.8"><animate attributeName="opacity" begin="-2.1s" dur="4.2s" keyTimes="0;1" repeatCount="indefinite" values="1;0"/></rect></g><g transform="rotate(180 50 50)"><rect width="6" height="12" x="47" y="24" fill="#000" rx="9.4" ry="4.8"><animate attributeName="opacity" begin="-1.75s" dur="4.2s" keyTimes="0;1" repeatCount="indefinite" values="1;0"/></rect></g><g transform="rotate(210 50 50)"><rect width="6" height="12" x="47" y="24" fill="#000" rx="9.4" ry="4.8"><animate attributeName="opacity" begin="-1.4000000000000001s" dur="4.2s" keyTimes="0;1" repeatCount="indefinite" values="1;0"/></rect></g><g transform="rotate(240 50 50)"><rect width="6" height="12" x="47" y="24" fill="#000" rx="9.4" ry="4.8"><animate attributeName="opacity" begin="-1.05s" dur="4.2s" keyTimes="0;1" repeatCount="indefinite" values="1;0"/></rect></g><g transform="rotate(270 50 50)"><rect width="6" height="12" x="47" y="24" fill="#000" rx="9.4" ry="4.8"><animate attributeName="opacity" begin="-0.7000000000000001s" dur="4.2s" keyTimes="0;1" repeatCount="indefinite" values="1;0"/></rect></g><g transform="rotate(300 50 50)"><rect width="6" height="12" x="47" y="24" fill="#000" rx="9.4" ry="4.8"><animate attributeName="opacity" begin="-0.35000000000000003s" dur="4.2s" keyTimes="0;1" repeatCount="indefinite" values="1;0"/></rect></g><g transform="rotate(330 50 50)"><rect width="6" height="12" x="47" y="24" fill="#000" rx="9.4" ry="4.8"><animate attributeName="opacity" begin="0s" dur="4.2s" keyTimes="0;1" repeatCount="indefinite" values="1;0"/></rect></g></svg>